<?xml version="1.0" encoding="UTF-8"?><svg id="Layer_1" xmlns="http://www.w3.org/2000/svg" viewBox="0 0 300 300"><path d="M62.8,41c6.5,15.7,16,29.8,28.6,41.3,6.1,5.6,12.9,10.6,20.1,14.7s7.1,3.8,10.8,5.4,8.1,3,9.9,7c2.8,6.1,13.2,1.8,10.9-4.6-1.6,2.7-1.5,3.5,0,2.3,1.1-.5,2.1-.9,3.2-1.4,2.1-.8,4.2-1.6,6.4-1.9,3.5-.5,7.4,0,9.4,3.2s4.3,3.7,6.7,2.7c8.4-3.3,17.6-3.8,25.7-8s14.2-11.4,20.3-17.7c12.2-12.8,22.9-27.4,24.1-45.6s-6.9-8.2-10.2-4.2-5,5.7-7.9,8.1-9.6,6-9.6,6.2l2.3,1.4c-.5-.8-1.1-1.6-1.7-2.4-.9-1.2-1.8-2.3-2.9-3.4-2.4-2.4-5.3-4.5-8.3-6.2-13.6-7.6-30-8.2-45.2-8.4-15-.2-30.4,0-45,3.9s-13.8,4.6-20.1,8.2-5.6,3.8-9.2,1.7-6-5.2-8.6-8.1c-5.2-5.7-13.6,2.7-8.4,8.4s11.1,12,19,12.6,14-5.4,20.9-8.2c15.6-6.5,33-6.8,49.6-6.6s36-.4,47.4,11.7,3.9,6.4,7.7,7.5,7-.9,10-2.6c7.1-3.9,13.4-9.2,18.5-15.4l-10.2-4.2c-1,15.4-11.5,27.8-21.8,38.3-5,5.1-10.3,11.4-16.7,14.6-7.1,3.6-15.5,3.9-22.9,6.8l6.7,2.7c-5-7.9-14-10.4-22.9-8.6s-21.6,5.9-18,15.6l10.9-4.6c-3.4-7.5-11.4-9.8-18.3-13.1-7.5-3.6-14.6-8-21-13.4-12.6-10.5-22.7-23.9-29-39-2.9-7-14.4-3.9-11.5,3.2h0Z" stroke-width="0"/><path d="M67.4,75.2c-6.4,10.2-9.7,22.4-8.7,34.5.5,6.5,2.4,12.5,3.9,18.8s1.4,13.6-.8,20.6c-4.1,13.3-10.5,26.2-16.2,38.8-6,13.2-12.2,26.3-18.7,39.3s2.8,11.5,8.1,8.1,11-7,16.5-10.5,5.5-3.5,8.2-5.3,3.9-2,4.9-3.2l1.1-.7c-1-.3-1.2-.1-.6.5,4.5,10.2,9,19.5,16.9,27.6s6.1,2.3,8.4,0c7.6-7.6,15.5-14.8,23.7-21.7l-10.2-4.2c1.6,14.4,7.5,27.1,16.2,38.6,4.4,5.8,9.2,11.3,14.2,16.5s9.8,12.4,16.3,13.2c7.2.9,10.1-6.8,13.9-11.5s9.4-10.2,14.4-15c9.5-9.2,19.2-18.6,24.9-30.7-3.6-.5-7.3-.9-10.9-1.4,3.4,9.6,9.3,17.3,17.6,23.1s7.8,0,8.7-3.6c2.9-10.6,5.8-21.1,8.8-31.7l-7.3,4.2c7.2,1.5,12.7,6.6,18.4,10.9s12.2,8,19.9,8.8,7-5.3,5.1-9c-6.9-13.7-14.6-27.3-20.4-41.6-5.4-13.3-7.6-27.5-7.8-41.7-.1-14.2,1.8-28.1,3.8-42.1,1.7-11.8,2.6-24.7-4.9-34.8s-14.8-.2-10.3,6c7.6,10.3,3.9,23.9,2.2,35.6s-3.3,28.3-2.5,42.6,3.7,27.7,9.2,40.7,13.5,27.6,20.3,41.3l5.1-9c-6.5-.7-11.9-5.7-16.8-9.5s-11.3-8.4-18.3-9.8-6.4.9-7.3,4.2c-2.9,10.6-5.8,21.1-8.8,31.7l8.7-3.6c-5.6-3.9-9.8-9.5-12.1-16s-8.5-6.4-10.9-1.4c-4.8,10.1-12.4,18-20.4,25.7s-8.3,7.9-12.2,12.1-8.2,8.1-10.2,12.7l-.8,1.2c2.5.3,3.1,0,1.9-.9-.4-1.1-2.6-2.5-3.4-3.4-2.1-2.1-4.2-4.2-6.3-6.4-4.1-4.3-8.2-8.8-11.8-13.5-7.3-9.6-13.2-20.5-14.5-32.6s-6-7.7-10.2-4.2c-8.2,6.9-16.1,14.2-23.7,21.7h8.4c-5.1-5.2-9.2-11.2-11.9-17.9s-4.1-11.5-10.2-13.3-12.8,3.8-18,7.1-14.3,9.1-21.4,13.7l8.1,8.1c12.6-25.2,25.4-51,34.9-77.6s3.8-12.5,3.6-19-2.2-12.9-3.7-19.2c-3.1-12.6-1.2-25.2,5.7-36.2,4.1-6.5-6.2-12.5-10.3-6h0Z" stroke-width="0"/><path d="M174.5,138.3c-5.5-13.4-21.9-37.6-37.7-22-6.1,6-9.8,14.9-11.5,23.2s0,9.8-2.2,12.1-5.2,2.9-7.1,3.9-5,2.7-7.5,4.1c-3.6,1.9-3.6,6.6-1.2,9.3,8.9,10.3,12.1,24,15.9,36.8,4.5,15,11.3,28.6,18.9,42.3,2.5,4.6,9.5,3.4,10.9-1.4,4.3-14.8,8.4-29.5,12.8-44.3,3.4-11.5,7.3-23.2,16.8-31.1s1.8-7.5-1.2-9.3c-5.9-3.5-12.1-6.2-18.6-8.2,1.2,2.9,2.4,5.8,3.6,8.7,1.7-3.1,3.9-5.9,5.5-9.1s2.7-8.9,3-13.6c.5-7.6-11.4-7.6-11.9,0-.5,6.9-3.6,10.8-6.8,16.6s-.2,7.6,3.6,8.7c5.6,1.7,10.7,4,15.8,7l-1.2-9.3c-10.2,8.5-15.2,21-19,33.4-4.8,15.7-9.1,31.5-13.6,47.2,3.6-.5,7.3-.9,10.9-1.4-7.9-14.3-14.4-28.3-19-44s-8.3-26.7-17.6-37.5l-1.2,9.3c6.2-3.4,16.2-6.5,19.6-13.1,1.4-2.6,1.5-5.6,1.8-8.4s1.1-7.6,2.3-11.2,5.8-15.7,11.1-13.7,6.2,5.5,8,7.9,4.3,6.5,5.8,10.1c2.9,7,14.4,3.9,11.5-3.2h0Z" stroke-width="0"/><path d="M90.9,94.3c-1.4,4.8-5.1,8-5.1,13.3s3.4,9.6,7.5,12.5c8.7,6.2,22.7,7.4,29.8-1.8,4.7-6-3.7-14.5-8.4-8.4s-11,3.6-15.3,0,1.8-8.6,2.9-12.4c2.2-7.4-9.3-10.5-11.5-3.2h0Z" stroke-width="0"/><path d="M174.9,118.9c9.3,9,22,14.8,33.1,5s7.6-9.3,8.5-14.9c1.2-7.1-2.4-13.1-7.3-17.9s-13.9,3-8.4,8.4,4.7,4.8,3.8,8.4-2.6,5.7-5,7.5c-5.9,4.5-12-.9-16.2-5s-13.9,3.1-8.4,8.4h0Z" stroke-width="0"/></svg>