<?xml version="1.0" standalone="no"?>
<!DOCTYPE svg PUBLIC "-//W3C//DTD SVG 20010904//EN"
 "http://www.w3.org/TR/2001/REC-SVG-20010904/DTD/svg10.dtd">
<svg version="1.0" xmlns="http://www.w3.org/2000/svg"
 width="700.000000pt" height="700.000000pt" viewBox="0 0 700.000000 700.000000"
 preserveAspectRatio="xMidYMid meet">
<metadata>
Created by potrace 1.14, written by Peter Selinger 2001-2017
</metadata>
<g transform="translate(0.000000,700.000000) scale(0.100000,-0.100000)"
fill="#000000" stroke="none">
<path d="M3660 5569 c-41 -5 -86 -13 -100 -19 -14 -5 -106 -19 -205 -30 -387
-44 -732 -115 -1060 -216 -153 -47 -215 -64 -236 -64 -21 0 -183 -83 -229
-118 -19 -14 -60 -49 -90 -76 l-55 -50 55 58 c30 32 106 92 169 134 63 42 110
77 104 79 -21 7 -157 -57 -214 -100 -97 -73 -175 -171 -234 -292 -66 -136 -91
-234 -112 -445 -13 -140 -14 -181 -3 -270 6 -58 14 -179 16 -269 5 -187 47
-463 89 -579 16 -44 25 -91 25 -128 0 -33 5 -86 11 -119 11 -66 27 -262 35
-425 6 -132 28 -295 58 -430 14 -58 27 -139 30 -180 4 -41 15 -129 26 -195 10
-66 18 -129 17 -140 -1 -11 4 -74 12 -140 l13 -120 -95 -255 c-52 -140 -107
-293 -122 -340 -16 -47 -34 -94 -41 -106 -8 -11 -23 -46 -33 -77 -34 -99 -141
-579 -141 -633 l0 -24 169 0 c100 0 172 4 176 10 3 5 30 103 60 217 69 266
101 376 123 417 l18 33 23 -91 c13 -50 30 -102 36 -116 7 -14 27 -95 44 -180
17 -85 41 -184 54 -220 l23 -65 127 -3 c70 -1 127 1 127 4 0 4 -27 143 -59
308 -65 325 -158 819 -191 1010 -21 127 -20 145 17 306 24 102 51 447 39 494
-15 60 -85 3 -127 -103 -12 -31 -25 -60 -29 -64 -8 -9 -20 65 -85 508 -111
759 -157 1331 -126 1590 33 281 108 516 219 683 19 29 36 52 37 50 2 -2 8
-100 14 -218 6 -118 13 -233 16 -255 5 -37 3 -41 -26 -58 -24 -14 -29 -21 -21
-29 7 -7 12 -16 12 -20 0 -7 -58 -35 -78 -38 -20 -3 -54 -49 -73 -99 -24 -63
-36 -257 -19 -321 5 -19 10 -104 11 -187 l1 -153 119 0 c73 0 119 -4 119 -10
0 -5 7 -10 15 -10 8 0 15 -7 15 -15 0 -13 -21 -15 -130 -15 -78 0 -130 -4
-130 -10 0 -6 41 -7 112 -3 71 4 109 3 105 -4 -4 -6 139 -8 406 -6 238 3 431
0 457 -5 35 -8 3 -10 -145 -12 -104 -1 -199 -5 -210 -10 -12 -5 63 -9 190 -10
228 -2 233 -6 45 -41 -208 -39 -693 -36 -890 5 -36 8 -67 12 -69 10 -2 -1 1
-17 7 -33 13 -36 6 -42 -8 -8 -7 17 -8 12 -4 -18 16 -101 49 -128 204 -166
l86 -21 22 -277 c28 -329 52 -555 93 -871 19 -149 32 -291 33 -390 4 -196 12
-245 148 -927 l112 -563 1141 0 1141 0 -3 73 c-2 39 -8 110 -13 157 -6 47 -12
191 -14 320 -3 197 -7 249 -25 320 -12 47 -26 97 -32 111 -6 15 -9 40 -7 55 3
24 8 15 27 -46 13 -41 27 -79 31 -85 4 -5 10 -28 14 -50 3 -22 10 -62 15 -90
6 -27 17 -90 26 -138 8 -49 22 -104 30 -124 15 -35 48 -172 60 -248 4 -22 18
-88 32 -147 l26 -108 133 0 c74 0 134 3 134 7 0 10 -113 401 -171 592 -28 90
-48 165 -45 168 4 5 157 -459 217 -659 l32 -108 43 0 43 0 -13 38 c-7 20 -16
61 -20 91 -12 93 -185 628 -281 871 -65 164 -248 556 -272 582 -16 18 -16 18
1 12 16 -6 17 -5 6 16 -15 27 -7 167 15 295 8 44 24 157 35 250 12 94 33 206
46 250 13 44 33 142 44 217 11 76 27 166 34 200 8 35 20 100 27 146 7 54 16
82 24 82 7 0 18 14 24 30 9 28 13 30 61 30 136 0 326 70 408 151 116 114 168
267 148 432 l-7 55 -40 -5 c-39 -6 -40 -5 -30 18 5 13 17 83 26 156 14 106 15
145 6 202 -14 87 -35 152 -68 210 -25 42 -25 45 -7 58 10 7 21 13 26 13 18 0
18 49 -1 93 -39 91 -105 153 -191 179 -27 8 -45 19 -45 28 0 22 -69 52 -129
57 -28 2 -71 7 -96 11 l-45 7 -3 53 c-2 35 1 52 7 48 7 -4 8 12 5 46 -18 183
-95 352 -207 455 -119 110 -397 196 -622 193 -44 0 -181 1 -305 4 -124 2 -259
0 -300 -5z m-1970 -583 c0 -2 -8 -10 -17 -17 -16 -13 -17 -12 -4 4 13 16 21
21 21 13z m3629 -337 c58 -23 130 -57 159 -76 51 -32 53 -35 38 -52 -9 -10
-16 -27 -16 -38 0 -29 46 -177 73 -237 44 -96 51 -146 38 -280 -21 -222 -16
-204 -69 -219 l-47 -14 -17 146 c-36 304 -44 327 -143 376 -59 29 -63 30 -210
30 -133 0 -162 -4 -250 -28 -233 -65 -309 -132 -356 -315 -16 -65 -20 -106
-17 -202 l3 -120 -80 0 c-95 -1 -466 -16 -614 -26 -72 -5 -102 -4 -97 4 3 5
11 66 16 134 6 67 15 175 21 238 5 63 14 154 18 201 9 102 31 138 120 189 31
18 79 47 106 65 28 17 77 41 110 53 82 29 251 72 284 72 15 0 51 7 81 15 164
47 239 61 395 75 55 4 118 13 140 19 22 6 69 11 105 11 36 0 72 5 80 10 20 13
11 15 129 -31z m-3802 -91 c-3 -7 -5 -2 -5 12 0 14 2 19 5 13 2 -7 2 -19 0
-25z m-10 -75 c-3 -10 -5 -2 -5 17 0 19 2 27 5 18 2 -10 2 -26 0 -35z m-10
-115 c-2 -13 -4 -3 -4 22 0 25 2 35 4 23 2 -13 2 -33 0 -45z m1863 -127 c59
-4 96 -12 120 -26 32 -19 36 -27 48 -95 8 -41 22 -113 33 -160 27 -120 24
-181 -15 -338 -19 -75 -37 -149 -40 -164 -6 -27 -8 -28 -74 -28 l-67 0 -28
227 c-17 146 -33 239 -45 262 -24 51 -91 97 -159 112 -112 25 -402 4 -578 -42
-91 -24 -156 -95 -192 -208 -13 -42 -18 -91 -18 -197 l0 -141 -165 -6 c-91 -4
-196 -10 -234 -14 l-69 -6 7 264 c4 145 8 282 9 304 2 51 36 105 79 127 130
64 195 86 278 93 222 18 419 29 565 31 265 4 363 9 372 18 4 4 26 4 48 1 22
-4 78 -10 125 -14z m357 -413 c-3 -7 -5 -2 -5 12 0 14 2 19 5 13 2 -7 2 -19 0
-25z m-10 -115 c-3 -10 -5 -4 -5 12 0 17 2 24 5 18 2 -7 2 -21 0 -30z m-10
-105 c-2 -13 -4 -5 -4 17 -1 22 1 32 4 23 2 -10 2 -28 0 -40z m1893 -28 c0
-59 -30 -163 -51 -176 -6 -3 -4 7 4 22 22 42 40 136 35 178 -2 20 0 36 4 36 4
0 8 -27 8 -60z m-43 44 c-3 -3 -12 -4 -19 -1 -8 3 -5 6 6 6 11 1 17 -2 13 -5z
m-1084 -31 c-29 -2 -77 -2 -105 0 -29 2 -6 3 52 3 58 0 81 -1 53 -3z m1102
-40 c-8 -56 -31 -117 -57 -155 -33 -48 -38 -31 -7 25 16 28 29 58 29 66 0 8
-14 -13 -30 -46 -45 -90 -50 -93 -246 -133 -213 -44 -452 -46 -619 -4 -164 41
-450 151 -468 181 -4 6 65 12 186 17 106 3 271 13 367 21 211 19 447 28 380
16 -25 -5 -112 -14 -195 -20 -201 -16 -319 -32 -308 -41 4 -5 49 -4 98 1 408
42 594 66 745 98 136 29 134 30 125 -26z m-1498 31 c-3 -3 -12 -4 -19 -1 -8 3
-5 6 6 6 11 1 17 -2 13 -5z m1136 -31 c-7 -2 -19 -2 -25 0 -7 3 -2 5 12 5 14
0 19 -2 13 -5z m-991 -30 c-73 -2 -190 -2 -260 0 -70 1 -10 3 133 3 143 0 200
-2 127 -3z m-535 -95 c-3 -8 -6 -5 -6 6 -1 11 2 17 5 13 3 -3 4 -12 1 -19z
m-1588 -1530 c0 -29 -6 -87 -13 -128 l-13 -75 -2 79 c-1 66 -3 77 -15 67 -21
-18 -153 -328 -239 -561 -120 -325 -246 -746 -333 -1102 -15 -65 -30 -116 -32
-113 -10 9 116 521 193 785 99 341 263 787 362 984 52 104 60 116 79 116 10 0
14 -14 13 -52z m2861 -643 c0 -5 -5 -3 -10 5 -5 8 -10 20 -10 25 0 6 5 3 10
-5 5 -8 10 -19 10 -25z m103 -240 c59 -150 187 -520 187 -539 -1 -6 -23 48
-49 119 -27 72 -65 169 -85 217 -39 94 -156 415 -156 426 2 16 51 -93 103
-223z m-3616 -997 c-3 -7 -5 -2 -5 12 0 14 2 19 5 13 2 -7 2 -19 0 -25z"/>
<path d="M5498 3563 c7 -3 16 -2 19 1 4 3 -2 6 -13 5 -11 0 -14 -3 -6 -6z"/>
<path d="M5448 3553 c6 -2 18 -2 25 0 6 3 1 5 -13 5 -14 0 -19 -2 -12 -5z"/>
<path d="M5532 3530 c0 -14 2 -19 5 -12 2 6 2 18 0 25 -3 6 -5 1 -5 -13z"/>
<path d="M5348 3533 c6 -2 18 -2 25 0 6 3 1 5 -13 5 -14 0 -19 -2 -12 -5z"/>
<path d="M1852 3280 c0 -14 2 -19 5 -12 2 6 2 18 0 25 -3 6 -5 1 -5 -13z"/>
</g>
</svg>
