<?xml version="1.0" encoding="UTF-8"?><svg id="Layer_1" xmlns="http://www.w3.org/2000/svg" viewBox="0 0 300 300"><path d="M39.3,165.8c25.1-25.8,55.8-44.9,87-62.4,17-9.5,34.1-18.8,51.4-27.8s17.9-9.2,26.8-13.8,2.9-.9,3.5-1.7l.9-.4-2-2.3c-.4.2.3,7.1.3,7.8.2,5.2.5,10.4.7,15.6.9,19.7,1.8,39.4,2.6,59.1.8,19.1,1.3,38.4-1.3,57.4-.6,4.6-1.4,9.1-2.5,13.7s-1.4,10.1-3.7,13.3.9.4-.8.3-2-.5-2.9-.8c-1.7-.5-3.4-1.1-5.1-1.7-3.8-1.4-7.5-3.2-11-5.2-6.9-3.9-13.1-8.7-18.6-14.4s-9.5-12.3-13.9-18.9c-5-7.5-11.3-13.2-20.6-14s-10.2.6-15.3,1.1-10.9,1-16.3,1.2c-11.2.5-22.5.4-33.7-.4s-10.9-.9-16.3-1.6c-2.6-.3-5.4-.6-8-1.1s-1.7-.3-2.4-.6l-1-.5c-1-1-1.3-.6-1,1.2,3.9-6.6-6.4-12.6-10.3-6s2.4,14.8,9.7,17,10,1.7,14.9,2.3c5.7.7,11.5,1.2,17.3,1.5,11.2.7,22.5.7,33.7,0,5.5-.3,10.9-.8,16.3-1.4s11-2,15.7.2c7.3,3.5,11.1,14.1,15.8,20.3s11.9,13.2,19.1,18.5,14.7,9.2,22.8,12.2,19,6,23.1-5.2c7.3-20,8.7-42.3,8.8-63.3,0-21.9-1.4-43.8-2.4-65.6-.5-11.4-1-22.8-1.5-34.2s.6-10.6-2.4-14.4-7.8-3.9-11.9-2.3c-10.2,4-20,10-29.7,15-9.8,5.1-19.5,10.3-29.2,15.5-40.8,22.1-82.4,44.9-115,78.4-5.4,5.5,3.1,13.9,8.4,8.4h0Z" stroke-width="0"/><path d="M188.7,72.4c-5.2,16.5-12.7,31.9-22.5,46.2-9.8,14.4-21.5,27.4-32.9,40.4-5.2,5.9-10.7,11.8-15.1,18.3-5,7.4-6.9,15.7-8.1,24.4-2.7,19-5.2,38.1-7.8,57.2-.6,4.5,4,10.1,8.7,6.7,19.9-13.9,37.8-30.5,53-49.5s-3.6-14.4-8.4-8.4c-14.5,18.2-31.5,34.3-50.5,47.6l8.7,6.7c2.6-19.1,5.1-38.1,7.8-57.2,1.3-9,3.3-16.9,8.9-24.3,5-6.5,10.6-12.4,16-18.5,11.3-12.9,22.6-26,32-40.4s16.6-29.8,21.7-46.1-9.2-10.5-11.5-3.2h0Z" stroke-width="0"/></svg>