<?xml version="1.0" encoding="UTF-8"?><svg id="Layer_1" xmlns="http://www.w3.org/2000/svg" viewBox="0 0 300 300"><path d="M249.3,260.6c-16.5.8-37,2-50.4-9.6s-11.5-15.7-16.2-24c-5.1-8.8-10.3-17.6-15.8-26.2-21.9-34.6-46.7-67.5-74-98-15.5-17.4-31.9-34-49-49.8l-4.2,10.2c21.8-.5,43.6-1.1,65.5-1.5s9.2.2,13.4,3,7.4,6.4,10.8,9.8c6.8,6.7,13.1,13.8,19.1,21.3,23.5,29.1,41,62.5,57.9,95.6,11.1,21.6,22.1,43.3,33.1,64.9,3.5,6.8,13.8.8,10.3-6-19.2-37.7-37.5-76.2-58.9-112.8-9.9-17-20.7-33.4-33-48.8-5.9-7.5-12.3-14.6-19-21.4-6.6-6.7-14-14.8-23.6-16.8s-11.3-.7-17-.6-13,.3-19.6.4c-13,.3-26.1.6-39.1.9s-8.1,6.6-4.2,10.2c31.2,28.9,60.1,60.5,85.8,94.5,12.8,16.9,24.9,34.5,36.2,52.5,5.6,8.9,11,17.9,16.1,27s9.6,18,17.3,24.6c16.1,13.6,38.4,13.5,58.3,12.6s7.7-12.3,0-11.9h0Z" stroke-width="0"/><path d="M247.9,62c-16.9,25.2-36.1,48.6-57.4,70.2-5.4,5.5,3,13.9,8.4,8.4,22-22.3,41.9-46.6,59.3-72.6,4.3-6.4-6-12.3-10.3-6h0Z" stroke-width="0"/><path d="M135.8,169.3c-32.8,21.8-62.4,48.1-87.9,78.1s3.5,14.3,8.4,8.4c24.8-29.3,53.5-55,85.5-76.2s.4-14.5-6-10.3h0Z" stroke-width="0"/></svg>